<?xml version="1.0" encoding="UTF-8" standalone="no"?>
<!-- Generator: Adobe Illustrator 24.2.3, SVG Export Plug-In . SVG Version: 6.00 Build 0)  -->

<svg
   xmlns:dc="http://purl.org/dc/elements/1.1/"
   xmlns:cc="http://creativecommons.org/ns#"
   xmlns:rdf="http://www.w3.org/1999/02/22-rdf-syntax-ns#"
   xmlns:svg="http://www.w3.org/2000/svg"
   xmlns="http://www.w3.org/2000/svg"
   xmlns:sodipodi="http://sodipodi.sourceforge.net/DTD/sodipodi-0.dtd"
   xmlns:inkscape="http://www.inkscape.org/namespaces/inkscape"
   version="1.1"
   x="0px"
   y="0px"
   viewBox="0 0 334.05999 92.839999"
   xml:space="preserve"
   id="svg71"
   sodipodi:docname="logo.svg"
   width="334.06"
   height="92.839996"
   inkscape:version="0.92.3 (2405546, 2018-03-11)"><metadata
   id="metadata77"><rdf:RDF><cc:Work
       rdf:about=""><dc:format>image/svg+xml</dc:format><dc:type
         rdf:resource="http://purl.org/dc/dcmitype/StillImage" /><dc:title></dc:title></cc:Work></rdf:RDF></metadata><defs
   id="defs75">
	

		
		
	</defs><sodipodi:namedview
   pagecolor="#ffffff"
   bordercolor="#666666"
   borderopacity="1"
   objecttolerance="10"
   gridtolerance="10"
   guidetolerance="10"
   inkscape:pageopacity="0"
   inkscape:pageshadow="2"
   inkscape:window-width="1920"
   inkscape:window-height="1052"
   id="namedview73"
   showgrid="false"
   inkscape:zoom="0.71384431"
   inkscape:cx="-3.5021669"
   inkscape:cy="90.949997"
   inkscape:window-x="0"
   inkscape:window-y="0"
   inkscape:window-maximized="1"
   inkscape:current-layer="svg71" />
<style
   type="text/css"
   id="style2">
	.st0{display:none;}
	.st1{display:inline;fill:#383838;}
	.st2{fill:#FF5534;}
	.st3{fill:#9088FF;}
	.st4{fill:#FFFFFF;}
	.st5{display:inline;opacity:0.2;fill:#9088FF;}
	
		.st6{display:inline;fill:none;stroke:#9088FF;stroke-width:0.2354;stroke-miterlimit:10;stroke-dasharray:1.8834,1.8834,1.8834,1.8834,1.8834,1.8834;}
	
		.st7{display:inline;fill:none;stroke:#9088FF;stroke-width:0.2597;stroke-miterlimit:10;stroke-dasharray:2.0777,2.0777,2.0777,2.0777,2.0777,2.0777;}
	.st8{display:inline;fill:none;stroke:#9088FF;stroke-width:0.4121;stroke-miterlimit:10;}
</style>
<g
   id="Layer_3"
   class="st0"
   style="display:none"
   transform="translate(0,-89.05999)">
	<rect
   x="-42.27"
   y="-44.459999"
   class="st1"
   width="566"
   height="995"
   id="rect4"
   style="display:inline;fill:#383838" />
</g>
<g
   id="g25"
   transform="translate(-47.160002,-45.300002)">
			<path
   class="st2"
   d="m 154.1,94.22 h 8.54 c 0.27,0 0.49,0.21 0.49,0.47 v 41.86 c 0,0.26 -0.22,0.47 -0.49,0.47 h -8.54 c -0.27,0 -0.49,-0.21 -0.49,-0.47 v -5.12 c -3.95,4.31 -8.72,6.71 -15.41,6.71 -6.05,0 -11.21,-2.18 -15.5,-6.55 -4.29,-4.37 -6.43,-9.69 -6.43,-15.97 0,-6.34 2.14,-11.67 6.43,-16.01 4.28,-4.34 9.45,-6.51 15.5,-6.51 6.69,0 11.72,2.21 15.41,6.57 v -4.98 c 0.01,-0.26 0.22,-0.47 0.49,-0.47 z m -24.35,31.2 c 2.64,2.6 5.96,3.9 9.95,3.9 3.99,0 7.31,-1.3 9.95,-3.9 2.64,-2.6 3.96,-5.86 3.96,-9.8 0,-3.94 -1.32,-7.2 -3.96,-9.8 -2.64,-2.6 -5.96,-3.9 -9.95,-3.9 -3.99,0 -7.31,1.3 -9.95,3.9 -2.64,2.6 -3.96,5.86 -3.96,9.8 0,3.94 1.32,7.21 3.96,9.8 z"
   id="path7"
   inkscape:connector-curvature="0"
   style="fill:#ff5534" />
			<path
   class="st2"
   d="m 201.32,103.12 h -10.43 v 20.55 c 0,1.77 0.41,3.04 1.23,3.81 0.82,0.77 2.04,1.2 3.65,1.28 1.5,0.08 3.33,0.07 5.51,-0.02 0.28,-0.01 0.52,0.2 0.52,0.47 v 7.39 c 0,0.24 -0.2,0.45 -0.44,0.48 -7.05,0.78 -12.13,0.15 -15.23,-1.89 -3.17,-2.08 -4.75,-5.92 -4.75,-11.51 v -20.55 h -8.79 c -0.27,0 -0.49,-0.21 -0.49,-0.47 V 94.7 c 0,-0.26 0.22,-0.47 0.49,-0.47 h 8.79 V 79.64 c 0,-0.26 0.22,-0.47 0.49,-0.47 h 8.54 c 0.27,0 0.49,0.21 0.49,0.47 v 14.58 h 10.43 c 0.27,0 0.49,0.21 0.49,0.47 v 7.96 c -0.02,0.26 -0.24,0.47 -0.5,0.47 z"
   id="path9"
   inkscape:connector-curvature="0"
   style="fill:#ff5534" />
			<path
   class="st2"
   d="m 235.83,93.11 c 5.05,0 9.13,1.57 12.24,4.71 3.11,3.14 4.67,7.45 4.67,12.93 v 25.81 c 0,0.26 -0.22,0.47 -0.49,0.47 h -8.54 c -0.27,0 -0.49,-0.21 -0.49,-0.47 v -24.87 c 0,-3.2 -0.88,-5.65 -2.64,-7.36 -1.76,-1.71 -4.17,-2.57 -7.22,-2.57 -3.35,0 -6.05,1.01 -8.1,3.04 -2.06,2.03 -3.08,5.12 -3.08,9.29 v 22.47 c 0,0.26 -0.22,0.47 -0.49,0.47 h -8.54 c -0.27,0 -0.49,-0.21 -0.49,-0.47 V 79.64 c 0,-0.26 0.22,-0.47 0.49,-0.47 h 8.54 c 0.27,0 0.49,0.21 0.49,0.47 V 99.7 c 2.88,-4.4 7.43,-6.59 13.65,-6.59 z"
   id="path11"
   inkscape:connector-curvature="0"
   style="fill:#ff5534" />
			<path
   class="st2"
   d="m 284.62,138.14 c -6.46,0 -11.95,-2.17 -16.46,-6.51 -4.52,-4.34 -6.78,-9.67 -6.78,-16.01 0,-6.34 2.26,-11.67 6.78,-16.01 4.52,-4.34 10.01,-6.51 16.46,-6.51 6.52,0 12.02,2.17 16.51,6.51 4.49,4.34 6.74,9.67 6.74,16.01 0,6.34 -2.25,11.67 -6.74,16.01 -4.49,4.34 -10,6.51 -16.51,6.51 z m -9.77,-12.84 c 2.64,2.57 5.9,3.85 9.77,3.85 3.87,0 7.13,-1.28 9.77,-3.85 2.64,-2.57 3.96,-5.79 3.96,-9.67 0,-3.88 -1.32,-7.11 -3.96,-9.67 -2.64,-2.57 -5.9,-3.85 -9.77,-3.85 -3.87,0 -7.13,1.28 -9.77,3.85 -2.64,2.57 -3.96,5.79 -3.96,9.67 -0.01,3.87 1.31,7.1 3.96,9.67 z"
   id="path13"
   inkscape:connector-curvature="0"
   style="fill:#ff5534" />
			<path
   class="st2"
   d="m 364.58,93.11 c 4.99,0 9.01,1.57 12.06,4.71 3.05,3.14 4.58,7.36 4.58,12.67 v 26.07 c 0,0.26 -0.22,0.47 -0.49,0.47 h -8.54 c -0.27,0 -0.49,-0.21 -0.49,-0.47 v -25.47 c 0,-2.97 -0.76,-5.27 -2.29,-6.89 -1.53,-1.63 -3.61,-2.44 -6.25,-2.44 -2.94,0 -5.27,0.94 -7,2.83 -1.73,1.88 -2.6,4.71 -2.6,8.48 v 23.5 c 0,0.26 -0.22,0.47 -0.49,0.47 h -8.54 c -0.27,0 -0.49,-0.21 -0.49,-0.47 V 111.1 c 0,-2.97 -0.72,-5.27 -2.16,-6.89 -1.44,-1.63 -3.48,-2.44 -6.12,-2.44 -2.88,0 -5.23,0.96 -7.04,2.87 -1.82,1.91 -2.41,4.72 -2.41,8.43 v 23.5 c 0,0.26 -0.22,0.47 -0.49,0.47 H 317 c -0.27,0 -0.49,-0.21 -0.49,-0.47 V 94.69 c 0,-0.26 0.22,-0.47 0.49,-0.47 h 8.54 c 0.27,0 0.49,0.21 0.49,0.47 v 4.66 c 2.82,-4.17 7.01,-6.25 12.59,-6.25 5.63,0 9.8,2.26 12.5,6.76 2.93,-4.5 7.42,-6.75 13.46,-6.75 z"
   id="path15"
   inkscape:connector-curvature="0"
   style="fill:#ff5534" />
			<g
   id="g23">
				<path
   class="st3"
   d="M 71.26,136.84 H 47.64 c -0.26,0 -0.47,-0.21 -0.47,-0.47 v -22.94 c 0,-0.26 0.21,-0.47 0.47,-0.47 h 23.62 c 0.26,0 0.47,0.21 0.47,0.47 v 22.94 c 0,0.26 -0.21,0.47 -0.47,0.47 z"
   id="path17"
   inkscape:connector-curvature="0"
   style="fill:#9088ff" />
				<path
   class="st2"
   d="M 104.63,103.01 H 47.62 c -0.25,0 -0.46,-0.2 -0.46,-0.46 V 79.58 c 0,-0.25 0.2,-0.46 0.46,-0.46 h 57.01 c 0.25,0 0.46,0.2 0.46,0.46 v 22.97 c -0.01,0.26 -0.21,0.46 -0.46,0.46 z"
   id="path19"
   inkscape:connector-curvature="0"
   style="fill:#ff5534" />
				<path
   class="st2"
   d="M 162.65,69.18 H 47.64 c -0.26,0 -0.47,-0.21 -0.47,-0.47 V 45.77 c 0,-0.26 0.21,-0.47 0.47,-0.47 h 115.01 c 0.26,0 0.47,0.21 0.47,0.47 v 22.94 c 0,0.26 -0.21,0.47 -0.47,0.47 z"
   id="path21"
   inkscape:connector-curvature="0"
   style="fill:#ff5534" />
			</g>
		</g>
<g
   id="Guides"
   class="st0"
   style="display:none"
   transform="translate(0,-89.05999)">
	<path
   class="st5"
   d="M 23.92,45.3 C 17.46,45.3 11.97,43.13 7.46,38.79 2.94,34.45 0.68,29.12 0.68,22.78 0.68,16.44 2.94,11.11 7.46,6.77 11.98,2.43 17.47,0.26 23.92,0.26 c 6.52,0 12.02,2.17 16.51,6.51 4.49,4.34 6.74,9.67 6.74,16.01 0,6.34 -2.25,11.67 -6.74,16.01 -4.49,4.34 -9.99,6.51 -16.51,6.51 z M 14.15,32.46 c 2.64,2.57 5.9,3.85 9.77,3.85 3.87,0 7.13,-1.28 9.77,-3.85 2.64,-2.57 3.96,-5.79 3.96,-9.67 0,-3.88 -1.32,-7.11 -3.96,-9.67 -2.64,-2.57 -5.9,-3.85 -9.77,-3.85 -3.87,0 -7.13,1.28 -9.77,3.85 -2.64,2.57 -3.96,5.79 -3.96,9.67 0,3.87 1.32,7.1 3.96,9.67 z"
   id="path36"
   inkscape:connector-curvature="0"
   style="display:inline;opacity:0.2;fill:#9088ff" />
	<path
   class="st5"
   d="m 23.92,181.69 c -6.46,0 -11.95,-2.17 -16.46,-6.51 -4.52,-4.34 -6.78,-9.67 -6.78,-16.01 0,-6.34 2.26,-11.67 6.78,-16.01 4.52,-4.34 10.01,-6.51 16.46,-6.51 6.52,0 12.02,2.17 16.51,6.51 4.49,4.34 6.74,9.67 6.74,16.01 0,6.34 -2.25,11.67 -6.74,16.01 -4.49,4.34 -9.99,6.51 -16.51,6.51 z m -9.77,-12.84 c 2.64,2.57 5.9,3.85 9.77,3.85 3.87,0 7.13,-1.28 9.77,-3.85 2.64,-2.57 3.96,-5.79 3.96,-9.67 0,-3.88 -1.32,-7.11 -3.96,-9.67 -2.64,-2.57 -5.9,-3.85 -9.77,-3.85 -3.87,0 -7.13,1.28 -9.77,3.85 -2.64,2.57 -3.96,5.79 -3.96,9.67 0,3.88 1.32,7.1 3.96,9.67 z"
   id="path38"
   inkscape:connector-curvature="0"
   style="display:inline;opacity:0.2;fill:#9088ff" />
	<path
   class="st5"
   d="m 445.84,45.3 c -6.46,0 -11.95,-2.17 -16.46,-6.51 -4.52,-4.34 -6.78,-9.67 -6.78,-16.01 0,-6.34 2.26,-11.67 6.78,-16.01 4.52,-4.34 10.01,-6.51 16.46,-6.51 6.52,0 12.02,2.17 16.51,6.51 4.49,4.34 6.74,9.67 6.74,16.01 0,6.34 -2.25,11.67 -6.74,16.01 -4.5,4.34 -10,6.51 -16.51,6.51 z m -9.78,-12.84 c 2.64,2.57 5.9,3.85 9.77,3.85 3.87,0 7.13,-1.28 9.77,-3.85 2.64,-2.57 3.96,-5.79 3.96,-9.67 0,-3.88 -1.32,-7.11 -3.96,-9.67 -2.64,-2.57 -5.9,-3.85 -9.77,-3.85 -3.87,0 -7.13,1.28 -9.77,3.85 -2.64,2.57 -3.96,5.79 -3.96,9.67 0,3.87 1.32,7.1 3.96,9.67 z"
   id="path40"
   inkscape:connector-curvature="0"
   style="display:inline;opacity:0.2;fill:#9088ff" />
	<path
   class="st5"
   d="m 445.84,181.69 c -6.46,0 -11.95,-2.17 -16.46,-6.51 -4.52,-4.34 -6.78,-9.67 -6.78,-16.01 0,-6.34 2.26,-11.67 6.78,-16.01 4.52,-4.34 10.01,-6.51 16.46,-6.51 6.52,0 12.02,2.17 16.51,6.51 4.49,4.34 6.74,9.67 6.74,16.01 0,6.34 -2.25,11.67 -6.74,16.01 -4.5,4.34 -10,6.51 -16.51,6.51 z m -9.78,-12.84 c 2.64,2.57 5.9,3.85 9.77,3.85 3.87,0 7.13,-1.28 9.77,-3.85 2.64,-2.57 3.96,-5.79 3.96,-9.67 0,-3.88 -1.32,-7.11 -3.96,-9.67 -2.64,-2.57 -5.9,-3.85 -9.77,-3.85 -3.87,0 -7.13,1.28 -9.77,3.85 -2.64,2.57 -3.96,5.79 -3.96,9.67 0,3.88 1.32,7.1 3.96,9.67 z"
   id="path42"
   inkscape:connector-curvature="0"
   style="display:inline;opacity:0.2;fill:#9088ff" />
	<line
   class="st6"
   x1="47.169998"
   y1="0.27000001"
   x2="47.169998"
   y2="181.69"
   id="line44"
   style="display:inline;fill:none;stroke:#9088ff;stroke-width:0.23540001;stroke-miterlimit:10;stroke-dasharray:1.8834, 1.8834, 1.8834, 1.8834, 1.8834, 1.8834" />
	<line
   class="st6"
   x1="422.53"
   y1="0.27000001"
   x2="422.53"
   y2="181.69"
   id="line46"
   style="display:inline;fill:none;stroke:#9088ff;stroke-width:0.23540001;stroke-miterlimit:10;stroke-dasharray:1.8834, 1.8834, 1.8834, 1.8834, 1.8834, 1.8834" />
	<line
   class="st6"
   x1="381.23001"
   y1="0.27000001"
   x2="381.23001"
   y2="181.69"
   id="line48"
   style="display:inline;fill:none;stroke:#9088ff;stroke-width:0.23540001;stroke-miterlimit:10;stroke-dasharray:1.8834, 1.8834, 1.8834, 1.8834, 1.8834, 1.8834" />
	<line
   class="st6"
   x1="163.12"
   y1="0.27000001"
   x2="163.12"
   y2="181.69"
   id="line50"
   style="display:inline;fill:none;stroke:#9088ff;stroke-width:0.23540001;stroke-miterlimit:10;stroke-dasharray:1.8834, 1.8834, 1.8834, 1.8834, 1.8834, 1.8834" />
	<line
   class="st6"
   x1="105.14"
   y1="0.27000001"
   x2="105.14"
   y2="181.69"
   id="line52"
   style="display:inline;fill:none;stroke:#9088ff;stroke-width:0.23540001;stroke-miterlimit:10;stroke-dasharray:1.8834, 1.8834, 1.8834, 1.8834, 1.8834, 1.8834" />
	<line
   class="st6"
   x1="71.730003"
   y1="0.27000001"
   x2="71.730003"
   y2="181.69"
   id="line54"
   style="display:inline;fill:none;stroke:#9088ff;stroke-width:0.23540001;stroke-miterlimit:10;stroke-dasharray:1.8834, 1.8834, 1.8834, 1.8834, 1.8834, 1.8834" />
	<line
   class="st7"
   x1="469.07999"
   y1="45.299999"
   x2="0.68000001"
   y2="45.299999"
   id="line56"
   style="display:inline;fill:none;stroke:#9088ff;stroke-width:0.2597;stroke-miterlimit:10;stroke-dasharray:2.0777, 2.0777, 2.0777, 2.0777, 2.0777, 2.0777" />
	<line
   class="st7"
   x1="469.07999"
   y1="69.18"
   x2="0.68000001"
   y2="69.18"
   id="line58"
   style="display:inline;fill:none;stroke:#9088ff;stroke-width:0.2597;stroke-miterlimit:10;stroke-dasharray:2.0777, 2.0777, 2.0777, 2.0777, 2.0777, 2.0777" />
	<line
   class="st7"
   x1="469.07999"
   y1="79.160004"
   x2="0.68000001"
   y2="79.160004"
   id="line60"
   style="display:inline;fill:none;stroke:#9088ff;stroke-width:0.2597;stroke-miterlimit:10;stroke-dasharray:2.0777, 2.0777, 2.0777, 2.0777, 2.0777, 2.0777" />
	<line
   class="st7"
   x1="469.07999"
   y1="102.92"
   x2="0.68000001"
   y2="102.92"
   id="line62"
   style="display:inline;fill:none;stroke:#9088ff;stroke-width:0.2597;stroke-miterlimit:10;stroke-dasharray:2.0777, 2.0777, 2.0777, 2.0777, 2.0777, 2.0777" />
	<line
   class="st7"
   x1="469.07999"
   y1="112.96"
   x2="0.68000001"
   y2="112.96"
   id="line64"
   style="display:inline;fill:none;stroke:#9088ff;stroke-width:0.2597;stroke-miterlimit:10;stroke-dasharray:2.0777, 2.0777, 2.0777, 2.0777, 2.0777, 2.0777" />
	<line
   class="st7"
   x1="469.07999"
   y1="136.84"
   x2="0.68000001"
   y2="136.84"
   id="line66"
   style="display:inline;fill:none;stroke:#9088ff;stroke-width:0.2597;stroke-miterlimit:10;stroke-dasharray:2.0777, 2.0777, 2.0777, 2.0777, 2.0777, 2.0777" />
	<rect
   x="0.20999999"
   y="0.20999999"
   class="st8"
   width="468.87"
   height="181.48"
   id="rect68"
   style="display:inline;fill:none;stroke:#9088ff;stroke-width:0.41209999;stroke-miterlimit:10" />
</g>
</svg>