<?xml version="1.0" encoding="utf-8"?>
<!-- Generator: Adobe Illustrator 22.1.0, SVG Export Plug-In . SVG Version: 6.00 Build 0)  -->
<svg version="1.1" id="Layer_1" xmlns="http://www.w3.org/2000/svg" xmlns:xlink="http://www.w3.org/1999/xlink" x="0px" y="0px"
	 viewBox="0 0 32 32" style="enable-background:new 0 0 32 32;" xml:space="preserve">
<title>orcid</title>
<path d="M16,0C7.2,0,0,7.2,0,16s7.2,16,16,16s16-7.2,16-16S24.8,0,16,0z M9.8,5.8c0.7,0,1.3,0.6,1.3,1.3c0,0.7-0.6,1.3-1.3,1.3
	c-0.7,0-1.3-0.6-1.3-1.3C8.6,6.4,9.1,5.8,9.8,5.8z M8.9,9.9h1.9v13.4H8.9V9.9z M13.6,9.9h5.2c4.9,0,7.1,3.5,7.1,6.7
	c0,3.4-2.7,6.7-7.1,6.7h-5.2L13.6,9.9z M15.5,11.6v9.9h3.1c4.4,0,5.4-3.3,5.4-5c0-2.7-1.7-5-5.5-5H15.5z"/>
</svg>
